<svg width="20" height="20" viewBox="0 0 20 20" fill="none" xmlns="http://www.w3.org/2000/svg">
<path fill-rule="evenodd" clip-rule="evenodd" d="M4.23868 4.21244C3.95928 4.21244 3.69132 4.32598 3.49375 4.52809C3.29618 4.7302 3.18519 5.00433 3.18519 5.29016V13.7098C3.18519 13.9957 3.29618 14.2698 3.49375 14.4719C3.69132 14.674 3.95928 14.7876 4.23868 14.7876H15.7613C16.0407 14.7876 16.3087 14.674 16.5063 14.4719C16.7038 14.2698 16.8148 13.9957 16.8148 13.7098V5.29016C16.8148 5.00433 16.7038 4.7302 16.5063 4.52809C16.3087 4.32598 16.0407 4.21244 15.7613 4.21244H4.23868ZM2.6557 3.67077C3.07553 3.24128 3.64495 3 4.23868 3H15.7613C16.3551 3 16.9245 3.24128 17.3443 3.67077C17.7641 4.10026 18 4.68277 18 5.29016V13.7098C18 14.3172 17.7641 14.8997 17.3443 15.3292C16.9245 15.7587 16.3551 16 15.7613 16H4.23868C3.64495 16 3.07553 15.7587 2.6557 15.3292C2.23586 14.8997 2 14.3172 2 13.7098V5.29016C2 4.68277 2.23586 4.10026 2.6557 3.67077Z" fill="#0062F2"/>
<path d="M7.71044 7.03023C8.08235 7.03023 8.38384 6.71609 8.38384 6.32858C8.38384 5.94108 8.08235 5.62694 7.71044 5.62694C7.33853 5.62694 7.03704 5.94108 7.03704 6.32858C7.03704 6.71609 7.33853 7.03023 7.71044 7.03023Z" fill="#0062F2"/>
<path d="M5.2413 7.03022C5.61321 7.03022 5.9147 6.71609 5.9147 6.32858C5.9147 5.94108 5.61321 5.62694 5.2413 5.62694C4.86939 5.62694 4.5679 5.94108 4.5679 6.32858C4.5679 6.71609 4.86939 7.03022 5.2413 7.03022Z" fill="#0062F2"/>
</svg>
