<svg width="20" height="20" viewBox="0 0 20 20" fill="none" xmlns="http://www.w3.org/2000/svg">
<path fill-rule="evenodd" clip-rule="evenodd" d="M5.98233 3.13187C5.98233 1.95447 6.94172 1 8.12518 1H13.5376C13.6957 1 13.8475 1.06252 13.9593 1.1738L17.8253 5.01996C17.9372 5.13124 18 5.28218 18 5.43956V13.9011C18 15.0785 17.0406 16.033 15.8571 16.033H15.0177V16.8681C15.0177 18.0455 14.0583 19 12.8748 19H5.14286C3.95939 19 3 18.0455 3 16.8681V6.0989C3 4.9215 3.95939 3.96703 5.14286 3.96703H5.98233V3.13187ZM5.98233 5.15385H5.14286C4.61823 5.15385 4.19293 5.57696 4.19293 6.0989V16.8681C4.19293 17.3901 4.61823 17.8132 5.14286 17.8132H12.8748C13.3994 17.8132 13.8247 17.3901 13.8247 16.8681V16.033H8.12518C6.94172 16.033 5.98233 15.0785 5.98233 13.9011V5.15385ZM8.12518 2.18681C7.60055 2.18681 7.17526 2.60993 7.17526 3.13187V13.9011C7.17526 14.423 7.60055 14.8462 8.12518 14.8462H15.8571C16.3818 14.8462 16.8071 14.423 16.8071 13.9011V6.03297H14.3108C13.5543 6.03297 12.9411 5.42289 12.9411 4.67033V2.18681H8.12518ZM14.134 3.02602L15.9635 4.84615H14.3108C14.2131 4.84615 14.134 4.76743 14.134 4.67033V3.02602Z" fill="#0062F2"/>
</svg>
