<svg width="143" height="21" viewBox="0 0 143 21" fill="none" xmlns="http://www.w3.org/2000/svg">
<g clip-path="url(#clip0_6178_699)">
<path d="M35.8498 14.0511L31.9948 4.14136H29.428V17.0387H31.1797V6.89512L35.1745 17.0932H36.4527L40.4831 6.80429V17.0387H42.2889V4.14136H39.7046L35.8498 14.0511Z" fill="#142641"/>
<path d="M47.6318 4.14136H45.7363V17.0387H47.6318V4.14136Z" fill="#142641"/>
<path d="M72.9783 10.5783C73.4951 9.85378 73.7706 8.98025 73.765 8.08511C73.765 7.02951 73.3115 6.04513 72.4879 5.31223C71.6383 4.55733 70.4576 4.14331 69.1589 4.14331H63.9263V17.0406H65.8218V12.428H68.8919L71.5702 17.0387H73.82L70.9537 12.1111C71.7623 11.8143 72.4666 11.281 72.9783 10.5783ZM71.8333 8.10329C71.8376 8.4418 71.7751 8.77772 71.6493 9.09118C71.5237 9.40463 71.3374 9.68924 71.1018 9.92814C70.6192 10.411 69.9421 10.6768 69.1949 10.6768H65.8194V5.91223H69.1949C70.6991 5.91223 71.8333 6.85358 71.8333 8.10329Z" fill="#142641"/>
<path d="M81.8016 3.92334C80.0227 3.92334 78.4185 4.62278 77.2785 5.8921C76.182 7.11599 75.5776 8.78451 75.5776 10.5898C75.5776 12.395 76.182 14.0726 77.2785 15.2946C78.4148 16.5596 80.0207 17.2548 81.8016 17.2548C83.5899 17.2548 85.2021 16.5577 86.3402 15.2946C87.4387 14.0741 88.0434 12.4031 88.0434 10.5898C88.0434 8.77638 87.4387 7.11503 86.3405 5.8921C85.2002 4.62134 83.5881 3.92334 81.8016 3.92334ZM81.8016 15.4495C81.2178 15.4517 80.6403 15.3256 80.1088 15.0798C79.5773 14.834 79.1043 14.4743 78.722 14.0253C77.9402 13.1222 77.5093 11.9016 77.5093 10.5898C77.5093 9.2779 77.9402 8.06691 78.722 7.16094C79.5185 6.23822 80.6119 5.73002 81.8016 5.73002C82.9913 5.73002 84.0893 6.23822 84.8906 7.16141C85.678 8.06977 86.1122 9.28602 86.1122 10.5898C86.1122 11.8935 85.6785 13.1203 84.8906 14.0253C84.5063 14.4743 84.0315 14.8338 83.4984 15.0796C82.9654 15.3253 82.3866 15.4515 81.8016 15.4495Z" fill="#142641"/>
<path d="M98.4334 10.2733C99.539 9.65177 100.196 8.56174 100.196 7.34069C100.196 5.45703 98.5512 4.14136 96.2019 4.14136H90.6433V17.0387H96.4698C98.7844 17.0387 100.464 15.4715 100.464 13.3125C100.465 12.0173 99.6893 10.8608 98.4334 10.2733ZM96.5248 15.2683H92.5379V11.2667H96.2536C97.6163 11.2667 98.5325 12.0092 98.5325 13.1136C98.5339 14.4221 97.7449 15.2683 96.5248 15.2683ZM96.0393 9.53129H92.5379V5.91219H96.2536C97.4752 5.91219 98.2628 6.55855 98.2628 7.55918C98.2642 8.54165 97.5763 9.53224 96.0393 9.53224V9.53129Z" fill="#142641"/>
<path d="M105.09 4.14136H103.194V17.0387H111.489V15.232H105.09V4.14136Z" fill="#142641"/>
<path d="M115.499 4.14136H113.604V17.0387H115.499V4.14136Z" fill="#142641"/>
<path d="M127.407 13.6835L120.801 4.1815L120.773 4.14136H118.94V17.0387H120.728V7.0242L127.686 17.0387H129.195V4.14136H127.407V13.6835Z" fill="#142641"/>
<path d="M137.665 9.81575L142.626 4.14136H140.307L134.529 10.7385V4.14136H132.633V17.0387H134.529V13.2948L136.368 11.2142L140.463 17.0387H142.761L137.665 9.81575Z" fill="#142641"/>
<path d="M59.9792 12.6752C59.1335 14.6325 58.0486 15.4677 56.3439 15.4677C55.1791 15.4677 54.112 14.9614 53.3394 14.0425C52.5787 13.1375 52.1596 11.9112 52.1596 10.5898C52.1596 9.27838 52.5693 8.06022 53.3128 7.1595C54.074 6.23775 55.1311 5.73002 56.2904 5.73002C57.8607 5.73002 59.009 6.52604 59.8012 8.16348L59.8351 8.2328H61.8183L61.809 8.17687C61.7619 7.90532 61.6643 7.65098 61.5699 7.40141L61.5393 7.32109C61.1338 6.29491 60.4245 5.42266 59.5095 4.82548C58.5955 4.22693 57.4942 3.92334 56.2364 3.92334C54.5165 3.92334 52.965 4.62278 51.8665 5.89354C50.8097 7.11648 50.2275 8.78451 50.2275 10.5898C50.2275 12.4194 50.8129 14.0946 51.8758 15.307C52.9942 16.5826 54.5265 17.2567 56.3077 17.2567C57.5556 17.2567 58.6524 16.9278 59.5677 16.2795C59.7216 16.1706 59.8695 16.0533 60.0108 15.9281C60.9389 15.1067 61.6418 13.9388 61.8902 12.8033L61.8964 12.7737C61.9048 12.7345 61.9124 12.6952 61.9189 12.6561L61.9284 12.6001H60.0093L59.9792 12.6752Z" fill="#142641"/>
<path fill-rule="evenodd" clip-rule="evenodd" d="M17.8128 4.15773L20.0968 9.85788C20.1935 10.0988 20.2417 10.3565 20.2386 10.6161C20.2357 10.8757 20.1815 11.1321 20.0792 11.3708L17.6622 17.0178C17.5602 17.2562 17.4122 17.4721 17.2268 17.6533C17.0413 17.8345 16.8219 17.9774 16.5812 18.0738L10.8792 20.3582C10.6384 20.4548 10.381 20.5028 10.1217 20.4999C9.86231 20.4968 9.60608 20.4428 9.36763 20.3406L3.72054 17.9232C3.23917 17.7171 2.85932 17.3283 2.66445 16.8423L0.380515 11.1403C0.284027 10.8996 0.23589 10.6423 0.238903 10.383C0.241915 10.1237 0.296012 9.86757 0.398065 9.62919L2.81505 3.98171C3.02121 3.50037 3.41003 3.12054 3.89608 2.92567L9.59812 0.641739C9.83887 0.545239 10.0963 0.497121 10.3557 0.500133C10.615 0.503145 10.8713 0.557228 11.1097 0.659293L16.7568 3.07627C16.9952 3.1783 17.2113 3.32632 17.3925 3.51188C17.5737 3.69746 17.7165 3.91691 17.8128 4.15773ZM14.5277 14.412C14.967 14.1859 15.4463 13.9394 15.9719 13.6514C16.8381 13.1793 17.4682 12.363 17.6281 11.6165C17.8036 10.8626 17.507 10.1789 16.912 9.80373C15.5535 8.93354 14.9955 7.8492 14.1516 6.209C13.9256 5.76988 13.6792 5.29094 13.3914 4.76559C12.9215 3.89895 12.1053 3.2679 11.3587 3.10945C10.6048 2.93345 9.92105 3.23049 9.54593 3.82549C8.67592 5.18369 7.59187 5.74141 5.95226 6.58494C5.51285 6.81101 5.03354 7.05761 4.50773 7.34564C3.64108 7.81823 3.01048 8.63451 2.85156 9.38105C2.67602 10.1345 2.97259 10.8187 3.56761 11.1933C4.92612 12.0635 5.48409 13.1479 6.32807 14.7881C6.55401 15.2272 6.80046 15.7061 7.08825 16.2315C7.55808 17.0981 8.37438 17.7292 9.12091 17.8876C9.87485 18.0636 10.5586 17.767 10.9337 17.172C11.8038 15.8134 12.8879 15.2556 14.5277 14.412Z" fill="url(#paint0_linear_6178_699)"/>
<path fill-rule="evenodd" clip-rule="evenodd" d="M17.8128 4.15773L20.0968 9.85788C20.1935 10.0988 20.2417 10.3565 20.2386 10.6161C20.2357 10.8757 20.1815 11.1321 20.0792 11.3708L17.6622 17.0178C17.5602 17.2562 17.4122 17.4721 17.2268 17.6533C17.0413 17.8345 16.8219 17.9774 16.5812 18.0738L10.8792 20.3582C10.6384 20.4548 10.381 20.5028 10.1217 20.4999C9.86231 20.4968 9.60608 20.4428 9.36763 20.3406L3.72054 17.9232C3.23917 17.7171 2.85932 17.3283 2.66445 16.8423L0.380515 11.1403C0.284027 10.8996 0.23589 10.6423 0.238903 10.383C0.241915 10.1237 0.296012 9.86757 0.398065 9.62919L2.81505 3.98171C3.02121 3.50037 3.41003 3.12054 3.89608 2.92567L9.59812 0.641739C9.83887 0.545239 10.0963 0.497121 10.3557 0.500133C10.615 0.503145 10.8713 0.557228 11.1097 0.659293L16.7568 3.07627C16.9952 3.1783 17.2113 3.32632 17.3925 3.51188C17.5737 3.69746 17.7165 3.91691 17.8128 4.15773ZM14.5277 14.412C14.967 14.1859 15.4463 13.9394 15.9719 13.6514C16.8381 13.1793 17.4682 12.363 17.6281 11.6165C17.8036 10.8626 17.507 10.1789 16.912 9.80373C15.5535 8.93354 14.9955 7.8492 14.1516 6.209C13.9256 5.76988 13.6792 5.29094 13.3914 4.76559C12.9215 3.89895 12.1053 3.2679 11.3587 3.10945C10.6048 2.93345 9.92105 3.23049 9.54593 3.82549C8.67592 5.18369 7.59187 5.74141 5.95226 6.58494C5.51285 6.81101 5.03354 7.05761 4.50773 7.34564C3.64108 7.81823 3.01048 8.63451 2.85156 9.38105C2.67602 10.1345 2.97259 10.8187 3.56761 11.1933C4.92612 12.0635 5.48409 13.1479 6.32807 14.7881C6.55401 15.2272 6.80046 15.7061 7.08825 16.2315C7.55808 17.0981 8.37438 17.7292 9.12091 17.8876C9.87485 18.0636 10.5586 17.767 10.9337 17.172C11.8038 15.8134 12.8879 15.2556 14.5277 14.412Z" fill="url(#paint1_linear_6178_699)" fill-opacity="0.5"/>
<path fill-rule="evenodd" clip-rule="evenodd" d="M17.8128 4.15773L20.0968 9.85788C20.1935 10.0988 20.2417 10.3565 20.2386 10.6161C20.2357 10.8757 20.1815 11.1321 20.0792 11.3708L17.6622 17.0178C17.5602 17.2562 17.4122 17.4721 17.2268 17.6533C17.0413 17.8345 16.8219 17.9774 16.5812 18.0738L10.8792 20.3582C10.6384 20.4548 10.381 20.5028 10.1217 20.4999C9.86231 20.4968 9.60608 20.4428 9.36763 20.3406L3.72054 17.9232C3.23917 17.7171 2.85932 17.3283 2.66445 16.8423L0.380515 11.1403C0.284027 10.8996 0.23589 10.6423 0.238903 10.383C0.241915 10.1237 0.296012 9.86757 0.398065 9.62919L2.81505 3.98171C3.02121 3.50037 3.41003 3.12054 3.89608 2.92567L9.59812 0.641739C9.83887 0.545239 10.0963 0.497121 10.3557 0.500133C10.615 0.503145 10.8713 0.557228 11.1097 0.659293L16.7568 3.07627C16.9952 3.1783 17.2113 3.32632 17.3925 3.51188C17.5737 3.69746 17.7165 3.91691 17.8128 4.15773ZM14.5277 14.412C14.967 14.1859 15.4463 13.9394 15.9719 13.6514C16.8381 13.1793 17.4682 12.363 17.6281 11.6165C17.8036 10.8626 17.507 10.1789 16.912 9.80373C15.5535 8.93354 14.9955 7.8492 14.1516 6.209C13.9256 5.76988 13.6792 5.29094 13.3914 4.76559C12.9215 3.89895 12.1053 3.2679 11.3587 3.10945C10.6048 2.93345 9.92105 3.23049 9.54593 3.82549C8.67592 5.18369 7.59187 5.74141 5.95226 6.58494C5.51285 6.81101 5.03354 7.05761 4.50773 7.34564C3.64108 7.81823 3.01048 8.63451 2.85156 9.38105C2.67602 10.1345 2.97259 10.8187 3.56761 11.1933C4.92612 12.0635 5.48409 13.1479 6.32807 14.7881C6.55401 15.2272 6.80046 15.7061 7.08825 16.2315C7.55808 17.0981 8.37438 17.7292 9.12091 17.8876C9.87485 18.0636 10.5586 17.767 10.9337 17.172C11.8038 15.8134 12.8879 15.2556 14.5277 14.412Z" fill="url(#paint2_linear_6178_699)" fill-opacity="0.15"/>
<path fill-rule="evenodd" clip-rule="evenodd" d="M17.8128 4.15773L20.0968 9.85788C20.1935 10.0988 20.2417 10.3565 20.2386 10.6161C20.2357 10.8757 20.1815 11.1321 20.0792 11.3708L17.6622 17.0178C17.5602 17.2562 17.4122 17.4721 17.2268 17.6533C17.0413 17.8345 16.8219 17.9774 16.5812 18.0738L10.8792 20.3582C10.6384 20.4548 10.381 20.5028 10.1217 20.4999C9.86231 20.4968 9.60608 20.4428 9.36763 20.3406L3.72054 17.9232C3.23917 17.7171 2.85932 17.3283 2.66445 16.8423L0.380515 11.1403C0.284027 10.8996 0.23589 10.6423 0.238903 10.383C0.241915 10.1237 0.296012 9.86757 0.398065 9.62919L2.81505 3.98171C3.02121 3.50037 3.41003 3.12054 3.89608 2.92567L9.59812 0.641739C9.83887 0.545239 10.0963 0.497121 10.3557 0.500133C10.615 0.503145 10.8713 0.557228 11.1097 0.659293L16.7568 3.07627C16.9952 3.1783 17.2113 3.32632 17.3925 3.51188C17.5737 3.69746 17.7165 3.91691 17.8128 4.15773ZM14.5277 14.412C14.967 14.1859 15.4463 13.9394 15.9719 13.6514C16.8381 13.1793 17.4682 12.363 17.6281 11.6165C17.8036 10.8626 17.507 10.1789 16.912 9.80373C15.5535 8.93354 14.9955 7.8492 14.1516 6.209C13.9256 5.76988 13.6792 5.29094 13.3914 4.76559C12.9215 3.89895 12.1053 3.2679 11.3587 3.10945C10.6048 2.93345 9.92105 3.23049 9.54593 3.82549C8.67592 5.18369 7.59187 5.74141 5.95226 6.58494C5.51285 6.81101 5.03354 7.05761 4.50773 7.34564C3.64108 7.81823 3.01048 8.63451 2.85156 9.38105C2.67602 10.1345 2.97259 10.8187 3.56761 11.1933C4.92612 12.0635 5.48409 13.1479 6.32807 14.7881C6.55401 15.2272 6.80046 15.7061 7.08825 16.2315C7.55808 17.0981 8.37438 17.7292 9.12091 17.8876C9.87485 18.0636 10.5586 17.767 10.9337 17.172C11.8038 15.8134 12.8879 15.2556 14.5277 14.412Z" fill="url(#paint3_radial_6178_699)"/>
<path fill-rule="evenodd" clip-rule="evenodd" d="M17.8128 4.15773L20.0968 9.85788C20.1935 10.0988 20.2417 10.3565 20.2386 10.6161C20.2357 10.8757 20.1815 11.1321 20.0792 11.3708L17.6622 17.0178C17.5602 17.2562 17.4122 17.4721 17.2268 17.6533C17.0413 17.8345 16.8219 17.9774 16.5812 18.0738L10.8792 20.3582C10.6384 20.4548 10.381 20.5028 10.1217 20.4999C9.86231 20.4968 9.60608 20.4428 9.36763 20.3406L3.72054 17.9232C3.23917 17.7171 2.85932 17.3283 2.66445 16.8423L0.380515 11.1403C0.284027 10.8996 0.23589 10.6423 0.238903 10.383C0.241915 10.1237 0.296012 9.86757 0.398065 9.62919L2.81505 3.98171C3.02121 3.50037 3.41003 3.12054 3.89608 2.92567L9.59812 0.641739C9.83887 0.545239 10.0963 0.497121 10.3557 0.500133C10.615 0.503145 10.8713 0.557228 11.1097 0.659293L16.7568 3.07627C16.9952 3.1783 17.2113 3.32632 17.3925 3.51188C17.5737 3.69746 17.7165 3.91691 17.8128 4.15773ZM14.5277 14.412C14.967 14.1859 15.4463 13.9394 15.9719 13.6514C16.8381 13.1793 17.4682 12.363 17.6281 11.6165C17.8036 10.8626 17.507 10.1789 16.912 9.80373C15.5535 8.93354 14.9955 7.8492 14.1516 6.209C13.9256 5.76988 13.6792 5.29094 13.3914 4.76559C12.9215 3.89895 12.1053 3.2679 11.3587 3.10945C10.6048 2.93345 9.92105 3.23049 9.54593 3.82549C8.67592 5.18369 7.59187 5.74141 5.95226 6.58494C5.51285 6.81101 5.03354 7.05761 4.50773 7.34564C3.64108 7.81823 3.01048 8.63451 2.85156 9.38105C2.67602 10.1345 2.97259 10.8187 3.56761 11.1933C4.92612 12.0635 5.48409 13.1479 6.32807 14.7881C6.55401 15.2272 6.80046 15.7061 7.08825 16.2315C7.55808 17.0981 8.37438 17.7292 9.12091 17.8876C9.87485 18.0636 10.5586 17.767 10.9337 17.172C11.8038 15.8134 12.8879 15.2556 14.5277 14.412Z" fill="url(#paint4_radial_6178_699)"/>
</g>
<defs>
<linearGradient id="paint0_linear_6178_699" x1="11.7839" y1="0.5" x2="7.32942" y2="27.4996" gradientUnits="userSpaceOnUse">
<stop stop-color="#0062F2"/>
<stop offset="0.249582" stop-color="#C6DDFF"/>
<stop offset="0.59375" stop-color="#C6DDFF"/>
<stop offset="1" stop-color="#0062F2"/>
</linearGradient>
<linearGradient id="paint1_linear_6178_699" x1="-9.39735" y1="11.4089" x2="27.8745" y2="20.4995" gradientUnits="userSpaceOnUse">
<stop offset="0.279297" stop-color="#0062F2"/>
<stop offset="0.474855" stop-color="#AAC8F3"/>
<stop offset="1" stop-color="#0062F2"/>
</linearGradient>
<linearGradient id="paint2_linear_6178_699" x1="13.8748" y1="0.5" x2="12.3293" y2="9.13623" gradientUnits="userSpaceOnUse">
<stop/>
<stop offset="1" stop-opacity="0"/>
</linearGradient>
<radialGradient id="paint3_radial_6178_699" cx="0" cy="0" r="1" gradientUnits="userSpaceOnUse" gradientTransform="translate(10.2385 11.4089) rotate(117.387) scale(8.49779 8.49782)">
<stop stop-color="#C5D9F6"/>
<stop offset="1" stop-color="#C4DAF3" stop-opacity="0"/>
</radialGradient>
<radialGradient id="paint4_radial_6178_699" cx="0" cy="0" r="1" gradientUnits="userSpaceOnUse" gradientTransform="translate(16.0566 11.2271) rotate(126.027) scale(9.89179 9.89186)">
<stop stop-color="#DFFF00"/>
<stop offset="1" stop-color="#F1FBCE" stop-opacity="0"/>
</radialGradient>
<clipPath id="clip0_6178_699">
<rect width="142.523" height="20" fill="white" transform="translate(0.23877 0.5)"/>
</clipPath>
</defs>
</svg>
