<svg width="462" height="279" viewBox="0 0 462 279" fill="none" xmlns="http://www.w3.org/2000/svg">
<g clip-path="url(#clip0_688_11446)">
<path fill-rule="evenodd" clip-rule="evenodd" d="M600.641 -304.783L681.952 -101.855C685.395 -93.2774 687.11 -84.105 687 -74.8626C686.897 -65.6208 684.968 -56.4904 681.324 -47.9943L595.28 153.042C591.648 161.528 586.38 169.216 579.777 175.667C573.174 182.118 565.365 187.205 556.796 190.637L353.801 271.963C345.23 275.4 336.067 277.109 326.834 277.005C317.6 276.895 308.479 274.973 299.99 271.335L98.9518 185.276C81.8149 177.937 68.2923 164.095 61.355 146.792L-19.9538 -56.2011C-23.3888 -64.769 -25.1025 -73.9305 -24.9953 -83.1606C-24.888 -92.3913 -22.9622 -101.51 -19.329 -109.996L66.7163 -311.049C74.0556 -328.185 87.8979 -341.707 105.201 -348.645L308.195 -429.954C316.766 -433.389 325.931 -435.102 335.165 -434.995C344.398 -434.888 353.52 -432.963 362.008 -429.329L563.045 -343.284C571.534 -339.651 579.225 -334.382 585.676 -327.776C592.127 -321.169 597.212 -313.356 600.641 -304.783ZM483.69 60.2729C499.33 52.226 516.391 43.449 535.105 33.1969C565.941 16.3891 588.373 -12.6714 594.063 -39.2484C600.313 -66.0882 589.754 -90.4282 568.572 -103.783C520.209 -134.762 500.345 -173.365 470.299 -231.757C462.255 -247.39 453.481 -264.44 443.236 -283.143C426.51 -313.996 397.45 -336.461 370.873 -342.102C344.033 -348.368 319.692 -337.793 306.338 -316.611C275.365 -268.258 236.772 -248.403 178.402 -218.373C162.759 -210.325 145.695 -201.546 126.976 -191.292C96.1233 -174.467 73.6737 -145.407 68.016 -118.83C61.7666 -92.0068 72.3248 -67.65 93.5077 -54.3123C141.871 -23.3333 161.735 15.27 191.781 73.6617C199.824 89.2946 208.598 106.346 218.843 125.048C235.569 155.901 264.63 178.366 291.206 184.007C318.047 190.273 342.387 179.715 355.742 158.532C386.716 110.164 425.313 90.3069 483.69 60.2729Z" fill="url(#paint0_linear_688_11446)"/>
</g>
<defs>
<linearGradient id="paint0_linear_688_11446" x1="331.003" y1="-435" x2="331.003" y2="277.01" gradientUnits="userSpaceOnUse">
<stop stop-color="#142641"/>
<stop offset="1" stop-color="#0061F0"/>
</linearGradient>
<clipPath id="clip0_688_11446">
<rect width="462" height="279" fill="white"/>
</clipPath>
</defs>
</svg>
